<?xml version="1.0" encoding="utf-8"?>
<!-- Generator: Adobe Illustrator 24.0.1, SVG Export Plug-In . SVG Version: 6.00 Build 0)  -->
<svg version="1.1" id="Capa_1" xmlns="http://www.w3.org/2000/svg" xmlns:xlink="http://www.w3.org/1999/xlink" x="0px" y="0px"
	 viewBox="0 0 512 512" style="enable-background:new 0 0 512 512;" xml:space="preserve">
<style type="text/css">
	.st0{fill:#FFFFFF;}
</style>
<g>
	<g>
		<path class="st0" d="M508.7,221.5L308.8,21.8C294.8,7.8,276,0,256,0s-38.8,7.7-52.8,21.8L2.9,221.9c-2.9,2.9-3.7,7.2-2.2,10.9
			C2.3,236.5,6,239,10,239h25.3l44.5,264.7c0,0.1,0,0.1,0,0.2c0,0.2,0.1,0.3,0.1,0.5c0,0.1,0.1,0.3,0.1,0.4c0,0.2,0.1,0.3,0.1,0.5
			c0.1,0.2,0.1,0.3,0.2,0.5c0.1,0.1,0.1,0.3,0.2,0.4c0.1,0.2,0.2,0.3,0.2,0.5c0.1,0.1,0.1,0.2,0.2,0.3c0.1,0.2,0.2,0.4,0.3,0.5
			c0.1,0.1,0.1,0.2,0.2,0.2c0.1,0.2,0.3,0.4,0.4,0.6c0,0.1,0.1,0.1,0.1,0.2c0.4,0.5,0.8,0.9,1.3,1.3c0.1,0.1,0.2,0.1,0.2,0.2
			c0.2,0.1,0.3,0.2,0.5,0.4c0.1,0.1,0.2,0.1,0.3,0.2c0.1,0.1,0.3,0.2,0.4,0.3c0.1,0.1,0.3,0.1,0.4,0.2s0.3,0.1,0.4,0.2
			s0.3,0.1,0.4,0.2c0.2,0.1,0.3,0.1,0.5,0.2c0.1,0,0.3,0.1,0.4,0.1c0.2,0.1,0.4,0.1,0.6,0.1c0.1,0,0.2,0.1,0.3,0.1
			c0.2,0,0.5,0.1,0.7,0.1c0.1,0,0.1,0,0.2,0c0.3,0,0.6,0.1,1,0.1l0,0h332.6l0,0c0.3,0,0.7,0,1-0.1c0.1,0,0.1,0,0.2,0
			c0.2,0,0.5-0.1,0.7-0.1c0.1,0,0.2-0.1,0.3-0.1c0.2,0,0.4-0.1,0.6-0.1c0.1,0,0.3-0.1,0.4-0.1c0.2-0.1,0.3-0.1,0.5-0.2
			c0.1-0.1,0.3-0.1,0.4-0.2s0.3-0.1,0.4-0.2s0.3-0.1,0.4-0.2s0.3-0.2,0.4-0.3c0.1-0.1,0.2-0.1,0.4-0.2c0.2-0.1,0.3-0.2,0.5-0.4
			c0.1-0.1,0.2-0.1,0.3-0.2c0.5-0.4,0.9-0.8,1.3-1.3c0-0.1,0.1-0.1,0.1-0.2c0.1-0.2,0.3-0.4,0.4-0.6c0.1-0.1,0.1-0.2,0.2-0.3
			c0.1-0.2,0.2-0.3,0.3-0.5c0.1-0.1,0.1-0.2,0.2-0.3c0.1-0.2,0.2-0.3,0.2-0.5c0.1-0.1,0.1-0.3,0.2-0.4c0.1-0.2,0.1-0.3,0.2-0.5
			c0.1-0.1,0.1-0.3,0.1-0.5c0-0.1,0.1-0.3,0.1-0.4c0-0.2,0.1-0.3,0.1-0.5c0-0.1,0-0.1,0-0.2L476.7,239H502l0,0c5.5,0,10-4.5,10-10
			C512,226,510.7,223.3,508.7,221.5z M146,492H98.1l-13.5-80H146V492z M346,492H166v-90c0-49.6,40.4-90,90-90s90,40.4,90,90V492z
			 M413.9,492H366v-80h61.3L413.9,492z M453.8,254.4h-57.5c-5.5,0-10,4.5-10,10s4.5,10,10,10h54.1L430.7,392h-65.2
			c-5.1-56-52.3-100-109.5-100c-57.3,0-104.5,44-109.5,100H81.3L61.5,274.4h54.1c5.5,0,10-4.5,10-10s-4.5-10-10-10H58.1L55.5,239
			h21.9c2.7,0,5.2-1.1,7.1-2.9L256,64.5L427.5,236c1.9,1.9,4.4,2.9,7.1,2.9h21.9L453.8,254.4z M438.7,219L263.1,43.3
			c-3.9-3.9-10.2-3.9-14.1,0L73.3,219H34.2L217.3,36c10.3-10.3,24-16,38.7-16c14.7,0,28.4,5.7,38.7,15.9l183.1,183L438.7,219
			L438.7,219z"/>
	</g>
</g>
</svg>
